<svg width="292" height="126" viewBox="0 0 292 126" fill="none" xmlns="http://www.w3.org/2000/svg">
<path fill-rule="evenodd" clip-rule="evenodd" d="M43.0916 77.0139C37.7141 83.1592 30.3902 74.3108 36.7722 73.1601C40.7665 72.4405 39.0949 69.0999 41.5232 68.1334C44.2339 67.0503 45.35 68.9705 45.35 68.9705C45.35 68.9705 47.8562 71.5696 43.0916 77.0139Z" fill="#3DD5C2"/>
<path fill-rule="evenodd" clip-rule="evenodd" d="M46.2069 81.0351H40.0177L40.0354 81.1213C39.2703 82.7802 39.1426 84.7824 39.1426 84.7824L39.6541 101.674H42.293C42.0385 100.856 40.8463 100.321 40.8463 100.321L42.6777 84.8687H43.5689L45.1881 101.599H47.657C47.4862 100.872 46.4648 100.235 46.4648 100.235C46.4648 100.235 47.0178 86.0592 47.0178 84.2734C47.0178 82.4835 46.2069 81.0351 46.2069 81.0351Z" fill="#0563C9"/>
<path fill-rule="evenodd" clip-rule="evenodd" d="M36.4303 64.5417L35.2871 64.8816L36.3947 70.8349L38.7605 75.2899L40.0372 81.1223L46.2112 81.0378L46.6763 78.6111L47.9995 81.0378L53.9867 84.2998L54.4407 83.4822L49.2746 79.5463C47.4381 73.0129 45.4004 73.4171 45.4004 73.4171H40.4617L38.0782 70.5203L36.4303 64.5417Z" fill="#0098FF"/>
<path fill-rule="evenodd" clip-rule="evenodd" d="M40.6826 70.6436C40.6826 69.5791 41.5493 68.715 42.6138 68.7141H43.5684C44.6354 68.7141 45.5004 69.5766 45.5004 70.6436C45.5004 71.7115 44.6354 72.5756 43.5684 72.5756H42.6138C41.5484 72.5756 40.6826 71.7115 40.6826 70.6436Z" fill="#FFD0BB"/>
<path fill-rule="evenodd" clip-rule="evenodd" d="M41.9093 68.6879C40.3663 69.1039 40.6258 70.5506 40.6258 70.5506C42.7988 70.2048 43.0922 68.6879 43.0922 68.6879C43.3721 70.1092 45.6127 70.5912 45.6127 70.5912C45.9594 68.3345 43.449 68.2711 41.9093 68.6879Z" fill="#3DD5C2"/>
<path fill-rule="evenodd" clip-rule="evenodd" d="M42.0947 72.3962C42.0947 71.9185 42.4828 71.5296 42.9605 71.5296C43.4391 71.5296 43.828 71.9185 43.828 72.3962V73.6298C43.828 74.1084 43.4391 74.4965 42.9605 74.4965C42.4828 74.4965 42.0947 74.1084 42.0947 73.6298V72.3962Z" fill="#FFD0BB"/>
<path fill-rule="evenodd" clip-rule="evenodd" d="M36.6929 64.2717C36.6929 64.7858 36.2769 65.2026 35.7611 65.2026C35.2479 65.2026 34.8311 64.7858 34.8311 64.2717C34.8311 63.7576 35.2479 63.3399 35.7611 63.3399C36.2769 63.3399 36.6929 63.7576 36.6929 64.2717Z" fill="#FFD0BB"/>
<path fill-rule="evenodd" clip-rule="evenodd" d="M54.4407 83.0953C53.9275 83.0953 53.5098 83.5138 53.5098 84.0279C53.5098 84.5411 53.9275 84.9563 54.4407 84.9563C54.9556 84.9563 55.3716 84.5411 55.3716 84.0279C55.3716 83.513 54.9556 83.0953 54.4407 83.0953Z" fill="#FFD0BB"/>
<mask id="mask0_2021_11593" style="mask-type:alpha" maskUnits="userSpaceOnUse" x="0" y="0" width="292" height="126">
<path fill-rule="evenodd" clip-rule="evenodd" d="M0 125.219H292V0.274155H0V125.219Z" fill="white"/>
</mask>
<g mask="url(#mask0_2021_11593)">
<path fill-rule="evenodd" clip-rule="evenodd" d="M18.6748 121.714H80.6126V116.703H18.6748V121.714Z" fill="#E9EFF2"/>
<path fill-rule="evenodd" clip-rule="evenodd" d="M39.6777 121.714H59.6092V116.703H39.6777V121.714Z" fill="#F2F7F9"/>
<path fill-rule="evenodd" clip-rule="evenodd" d="M18.6748 111.694H80.6126V106.684H18.6748V111.694Z" fill="#E9EFF2"/>
<path fill-rule="evenodd" clip-rule="evenodd" d="M39.6777 111.694H59.6092V106.684H39.6777V111.694Z" fill="#F2F7F9"/>
<path fill-rule="evenodd" clip-rule="evenodd" d="M24.4014 106.684H86.3392V101.674H24.4014V106.684Z" fill="#E0E8ED"/>
<path fill-rule="evenodd" clip-rule="evenodd" d="M45.4053 106.684H65.3359V101.674H45.4053V106.684Z" fill="#F2F7F9"/>
<path fill-rule="evenodd" clip-rule="evenodd" d="M20.1074 116.702H82.0444V111.694H20.1074V116.702Z" fill="#E0E8ED"/>
<path fill-rule="evenodd" clip-rule="evenodd" d="M41.1113 116.702H61.0411V111.694H41.1113V116.702Z" fill="#F2F7F9"/>
<path fill-rule="evenodd" clip-rule="evenodd" d="M292 118.435C292 120.308 290.481 121.827 288.607 121.827H165.189C163.316 121.827 161.798 120.308 161.798 118.435V37.1352C161.798 35.2615 163.316 33.743 165.189 33.743H288.607C290.481 33.743 292 35.2615 292 37.1352V118.435Z" fill="#E9EFF2"/>
<path fill-rule="evenodd" clip-rule="evenodd" d="M168.353 114.929H285.445V40.641H168.353V114.929Z" fill="#E0E8ED"/>
<path fill-rule="evenodd" clip-rule="evenodd" d="M243.344 77.7843C243.344 68.7017 235.982 61.3389 226.899 61.3389C217.817 61.3389 210.453 68.7017 210.453 77.7843C210.453 86.8677 217.817 94.2305 226.899 94.2305C235.982 94.2305 243.344 86.8677 243.344 77.7843Z" fill="#E9EFF2"/>
<path fill-rule="evenodd" clip-rule="evenodd" d="M226.381 94.2171C226.553 94.2222 226.725 94.2306 226.898 94.2306C227.072 94.2306 227.244 94.2222 227.417 94.2171V61.3525C227.244 61.3474 227.072 61.339 226.898 61.339C226.725 61.339 226.553 61.3474 226.381 61.3525V94.2171Z" fill="#E0E8ED"/>
<path fill-rule="evenodd" clip-rule="evenodd" d="M214.913 89.0379C215.032 89.1638 215.147 89.2907 215.271 89.4133C215.393 89.5367 215.52 89.6526 215.644 89.7709L238.884 66.5318C238.766 66.4058 238.65 66.279 238.528 66.1564C238.405 66.0329 238.278 65.9171 238.151 65.7995L214.913 89.0379Z" fill="#E0E8ED"/>
<path fill-rule="evenodd" clip-rule="evenodd" d="M210.466 77.267C210.46 77.4395 210.452 77.6111 210.453 77.7845C210.452 77.9587 210.461 78.1303 210.466 78.3019H243.331C243.336 78.1303 243.344 77.9587 243.344 77.7845C243.344 77.6111 243.336 77.4395 243.331 77.267H210.466Z" fill="#E0E8ED"/>
<path fill-rule="evenodd" clip-rule="evenodd" d="M215.645 65.7992C215.52 65.9176 215.393 66.0326 215.271 66.1569C215.147 66.2786 215.032 66.4054 214.914 66.5314L238.152 89.7706C238.278 89.6522 238.405 89.5364 238.527 89.4138C238.65 89.2903 238.766 89.1635 238.884 89.0375L215.645 65.7992Z" fill="#E0E8ED"/>
<path fill-rule="evenodd" clip-rule="evenodd" d="M234.851 77.7843C234.851 73.3927 231.291 69.8305 226.898 69.8305C222.505 69.8305 218.943 73.3927 218.943 77.7843C218.943 82.1776 222.505 85.739 226.898 85.739C231.291 85.739 234.851 82.1776 234.851 77.7843Z" fill="#E0E8ED"/>
<path fill-rule="evenodd" clip-rule="evenodd" d="M232.471 77.7843C232.471 74.7074 229.977 72.2123 226.898 72.2123C223.82 72.2123 221.325 74.7074 221.325 77.7843C221.325 80.8628 223.82 83.3571 226.898 83.3571C229.977 83.3571 232.471 80.8628 232.471 77.7843Z" fill="#F2F7F9"/>
<path fill-rule="evenodd" clip-rule="evenodd" d="M178.303 121.826H205.298V50.3383H178.303V121.826Z" fill="#C5CED3" fill-opacity="0.2"/>
<path fill-rule="evenodd" clip-rule="evenodd" d="M270.526 125.219H285.446V121.826H270.526V125.219Z" fill="#E0E8ED"/>
<path fill-rule="evenodd" clip-rule="evenodd" d="M89.2455 47.8517H203.477C204.85 47.8517 205.665 48.9644 205.298 50.3383L185.233 125.219H66.0283L86.0925 50.3383C86.4603 48.9644 87.8715 47.8517 89.2455 47.8517Z" fill="#E9EFF2"/>
<path fill-rule="evenodd" clip-rule="evenodd" d="M182.459 122.758H70.1221L89.2723 51.2856H201.61L182.459 122.758Z" fill="white"/>
<path fill-rule="evenodd" clip-rule="evenodd" d="M2.48668 121.713H182.582C183.955 121.713 185.068 122.827 185.068 124.2V125.219H0V124.2C0 122.827 1.11271 121.713 2.48668 121.713Z" fill="#E9EFF2"/>
<path fill-rule="evenodd" clip-rule="evenodd" d="M166.093 13.0747L165.818 11.792L175.448 8.99419H180.371L181.616 4.6795L177.772 1.72102L178.297 0.91777L182.916 3.62428C182.916 3.62428 183.796 4.02506 183.557 5.04561C183.322 6.06615 182.224 10.7909 182.224 10.7909L181.919 18.2636H174.602C174.604 18.2586 173.967 11.5477 173.967 11.5477L166.093 13.0747Z" fill="#B251E0"/>
<path fill-rule="evenodd" clip-rule="evenodd" d="M178.751 1.29309C178.751 1.85621 178.296 2.31279 177.733 2.31279C177.169 2.31279 176.713 1.85621 176.713 1.29309C176.713 0.730819 177.169 0.273392 177.733 0.273392C178.296 0.273392 178.751 0.730819 178.751 1.29309Z" fill="#FFD0BB"/>
<path fill-rule="evenodd" clip-rule="evenodd" d="M166.572 12.559C166.572 13.1128 166.124 13.5618 165.569 13.5618C165.016 13.5618 164.567 13.1128 164.567 12.559C164.567 12.0052 165.016 11.5562 165.569 11.5562C166.124 11.5562 166.572 12.0052 166.572 12.559Z" fill="#FFD0BB"/>
<path fill-rule="evenodd" clip-rule="evenodd" d="M177.176 8.99233H178.87V6.91742H177.176V8.99233Z" fill="#FFD0BB"/>
<path fill-rule="evenodd" clip-rule="evenodd" d="M176.989 3.90931H174.694L175.218 5.4786C175.218 6.58031 176.013 7.90186 176.989 7.90186H178.078C179.055 7.90186 179.849 7.0073 179.849 5.90474C179.849 4.80302 179.055 3.90846 178.078 3.90846H177.61H176.989V3.90931Z" fill="#0563C9"/>
<path fill-rule="evenodd" clip-rule="evenodd" d="M176.993 5.47902H175.219V6.22984C175.219 7.20727 176.013 8.00036 176.991 8.00036H178.079C178.334 8.00036 178.576 7.94287 178.799 7.84479C178.841 7.68837 178.871 7.52603 178.871 7.35692C178.871 6.31862 178.03 5.47902 176.993 5.47902Z" fill="#FFD0BB"/>
<path fill-rule="evenodd" clip-rule="evenodd" d="M177.693 6.56441C177.693 6.29046 177.914 6.06978 178.187 6.06978H178.886C179.158 6.06978 179.379 6.29046 179.379 6.56441C179.379 6.83751 179.158 7.05819 178.886 7.05819H178.187C177.917 7.05819 177.693 6.83751 177.693 6.56441Z" fill="#FFD0BB"/>
<path fill-rule="evenodd" clip-rule="evenodd" d="M177.586 5.47901C175.79 6.43952 175.219 5.47901 175.219 5.47901C177.481 4.65632 176.079 5.22282 177.586 5.47901Z" fill="#0563C9"/>
<path fill-rule="evenodd" clip-rule="evenodd" d="M181.919 18.2638H174.604L175.533 32.6132C174.491 32.8448 173.798 33.7428 173.798 33.7428H176.473L177.418 19.8635H178.92L181.184 32.8017C180.218 33.0469 179.713 33.7428 179.713 33.7428H182.314L181.919 18.2638Z" fill="#3DD5C2"/>
<path fill-rule="evenodd" clip-rule="evenodd" d="M182.093 25.0614L182.287 32.6871H181.165L179.83 25.0614H182.093Z" fill="#FFD0BB"/>
<path fill-rule="evenodd" clip-rule="evenodd" d="M175.534 32.6133L175.044 25.0611H177.064L176.546 32.6869H175.279C175.362 32.659 175.446 32.6328 175.534 32.6133Z" fill="#FFD0BB"/>
<path fill-rule="evenodd" clip-rule="evenodd" d="M129.744 101.277H135.607V96.705H129.744V101.277Z" fill="#0098FF"/>
<path fill-rule="evenodd" clip-rule="evenodd" d="M141.47 79.0129V101.277H151.259V83.654L141.47 79.0129Z" fill="#0098FF"/>
<path fill-rule="evenodd" clip-rule="evenodd" d="M114.273 101.277H123.88V79.0126L114.273 83.6545V101.277Z" fill="#0098FF"/>
<path fill-rule="evenodd" clip-rule="evenodd" d="M134.008 85.2256C133.876 85.1013 133.679 84.9601 133.422 84.8036C133.163 84.6489 132.833 84.479 132.432 84.2963C131.603 83.9243 131.058 83.5827 130.798 83.2707C130.385 82.8048 130.177 82.2476 130.177 81.5983C130.177 81.2905 130.226 81.0047 130.324 80.7401C130.423 80.4746 130.564 80.2344 130.749 80.0197C130.936 79.8032 131.165 79.6172 131.438 79.4583C131.712 79.3001 132.022 79.1767 132.368 79.0862V77.8298H133.489V79.0862C133.992 79.1691 134.406 79.3348 134.725 79.5868C135.047 79.8379 135.351 80.2235 135.641 80.7468L134.391 81.4444C134.017 80.7612 133.525 80.4188 132.919 80.4188C132.543 80.4188 132.231 80.5304 131.983 80.7536C131.735 80.9743 131.611 81.2525 131.611 81.5839C131.611 81.8891 131.712 82.1402 131.912 82.3415C132.109 82.5376 132.507 82.771 133.105 83.0399C133.621 83.2749 134.048 83.4965 134.386 83.7028C134.724 83.9099 134.977 84.1103 135.149 84.3014C135.631 84.8222 135.872 85.4538 135.872 86.1928C135.872 86.9183 135.654 87.5584 135.219 88.1139C134.787 88.6643 134.211 89.0363 133.489 89.2291V90.5549H132.368V89.2671C131.53 89.131 130.891 88.8427 130.452 88.4013C130.011 87.9617 129.688 87.2836 129.479 86.3662L130.888 86.0711C131.08 86.7196 131.314 87.1829 131.593 87.4594C131.882 87.7249 132.269 87.8577 132.752 87.8577C133.221 87.8577 133.614 87.7072 133.931 87.4028C134.242 87.1043 134.399 86.7171 134.399 86.2444C134.399 85.82 134.269 85.4817 134.008 85.2256ZM125.193 83.0018V101.277H128.433V96.0533C128.433 95.6931 128.726 95.4006 129.089 95.4006H136.263C136.626 95.4006 136.918 95.6931 136.918 96.0533V101.277H140.157V83.0018V72.7668H125.193V83.0018Z" fill="#0098FF"/>
<path fill-rule="evenodd" clip-rule="evenodd" d="M155.42 74.7977C149.613 74.7977 144.903 79.5065 144.903 85.3143C144.903 91.1222 149.613 95.8301 155.42 95.8301C161.228 95.8301 165.937 91.1222 165.937 85.3143C165.93 79.509 161.225 74.8054 155.42 74.7977Z" fill="#3DD5C2"/>
<path fill-rule="evenodd" clip-rule="evenodd" d="M161.095 83.0565L154.889 89.2626C154.421 89.731 153.664 89.731 153.195 89.2634L153.194 89.2626L149.749 85.8205C149.278 85.3521 149.276 84.5911 149.744 84.121C150.212 83.6509 150.972 83.6492 151.443 84.1159L154.041 86.7159L159.401 81.3553C159.869 80.8894 160.628 80.8894 161.095 81.3553C161.563 81.8237 161.563 82.5821 161.095 83.0505V83.0565Z" fill="white"/>
<path fill-rule="evenodd" clip-rule="evenodd" d="M108.095 33.7429C106.161 27.0074 99.9602 22.078 92.6033 22.078C86.6576 22.078 81.4669 25.2995 78.6725 30.0902C76.6238 27.6965 73.5825 26.178 70.1843 26.178C65.2778 26.178 61.1119 29.3428 59.6094 33.7429H108.095Z" fill="#F2F7F9"/>
</g>
</svg>
